<svg xmlns="http://www.w3.org/2000/svg" viewBox="0 0 110 112" width="160" height="160" overflow="visible" role="img" aria-labelledby="mbl-seal-judges-6-f2-title"><title id="mbl-seal-judges-6-f2-title">Judges 6 Scripture Seal, Lustrous finish</title><defs><linearGradient id="mbl-seal-judges-6-f2-metal" x1="0" y1="0" x2="1" y2="1"><stop stop-color="#FFF0B8"></stop><stop offset=".28" stop-color="#BC8739"></stop><stop offset=".5" stop-color="#FFE7A0"></stop><stop offset=".78" stop-color="#8F5D23"></stop><stop offset="1" stop-color="#EAC078"></stop></linearGradient><linearGradient id="mbl-seal-judges-6-f2-relief" x1="0" y1="0" x2=".65" y2="1"><stop stop-color="#FFFFE8"></stop><stop offset=".3" stop-color="#FFE6A1"></stop><stop offset=".58" stop-color="#DCAE59"></stop><stop offset=".78" stop-color="#FFF0BA"></stop><stop offset="1" stop-color="#BE8938"></stop></linearGradient><radialGradient id="mbl-seal-judges-6-f2-center" cx="30%" cy="20%" r="85%"><stop stop-color="rgb(219, 160, 131)"></stop><stop offset=".45" stop-color="rgb(152, 79, 55)"></stop><stop offset="1" stop-color="#733824"></stop></radialGradient><clipPath id="mbl-seal-judges-6-f2-clip"><path d="M50 4L61 11L75 10L81 23L94 30L90 45L97 57L86 69L84 83L68 87L57 97L44 91L28 94L20 81L7 73L12 58L4 45L15 33L16 18L32 15Z"></path></clipPath><filter id="mbl-seal-judges-6-f2-finish" x="-15%" y="-15%" width="130%" height="130%" color-interpolation-filters="sRGB"><feGaussianBlur in="SourceAlpha" stdDeviation="2.1" result="blur1"/><feOffset in="blur1" dx="0" dy="2.8" result="offset1"/><feFlood flood-color="#3d2b1f" flood-opacity="0.149" result="flood1"/><feComposite in="flood1" in2="offset1" operator="in" result="shadow1"/><feMerge result="layer1"><feMergeNode in="shadow1"/><feMergeNode in="SourceGraphic"/></feMerge></filter></defs><g filter="url(#mbl-seal-judges-6-f2-finish)" transform="translate(5 5)"><path d="M50 4L61 11L75 10L81 23L94 30L90 45L97 57L86 69L84 83L68 87L57 97L44 91L28 94L20 81L7 73L12 58L4 45L15 33L16 18L32 15Z" fill="url(#mbl-seal-judges-6-f2-metal)" stroke="#815321" stroke-width="1"></path><path class="seal-polished-rim" d="M50 4L61 11L75 10L81 23L94 30L90 45L97 57L86 69L84 83L68 87L57 97L44 91L28 94L20 81L7 73L12 58L4 45L15 33L16 18L32 15Z" fill="none" stroke="#FFE6A1" stroke-width="1"></path><path d="M50 4L61 11L75 10L81 23L94 30L90 45L97 57L86 69L84 83L68 87L57 97L44 91L28 94L20 81L7 73L12 58L4 45L15 33L16 18L32 15Z" transform="translate(50 50) scale(.88) translate(-50 -50)" fill="url(#mbl-seal-judges-6-f2-center)" stroke="#FFF0C6" stroke-width=".8"></path><g clip-path="url(#mbl-seal-judges-6-f2-clip)"><g stroke="#FFD9B9" opacity=".24" stroke-width=".7" transform="rotate(0 50 50)"><path d="M50 8V18" transform="rotate(0 50 50)"></path><path d="M50 8V18" transform="rotate(30 50 50)"></path><path d="M50 8V18" transform="rotate(60 50 50)"></path><path d="M50 8V18" transform="rotate(90 50 50)"></path><path d="M50 8V18" transform="rotate(120 50 50)"></path><path d="M50 8V18" transform="rotate(150 50 50)"></path><path d="M50 8V18" transform="rotate(180 50 50)"></path><path d="M50 8V18" transform="rotate(210 50 50)"></path><path d="M50 8V18" transform="rotate(240 50 50)"></path><path d="M50 8V18" transform="rotate(270 50 50)"></path><path d="M50 8V18" transform="rotate(300 50 50)"></path><path d="M50 8V18" transform="rotate(330 50 50)"></path><circle cx="50" cy="50" r="35" fill="none" stroke-dasharray="12 6"></circle></g><g transform="translate(50 50) scale(0.76) translate(-50 -50)"><g stroke-linecap="round" stroke-linejoin="round"><g fill="#733824" stroke="#733824" stroke-width="2.2" opacity=".55" transform="translate(0 2)"><path d="M27 60L26 76H32L36 60M49 61L52 76H58L58 60"></path><path d="M23 57C14 56 13 45 20 41C17 32 27 28 33 31C36 23 47 24 51 30C61 24 69 32 66 39C75 43 73 54 66 57C62 65 52 65 47 62C38 69 29 65 27 60Z"></path><path d="M62 36L69 29L71 38C78 38 82 43 80 48L75 59C72 65 65 64 62 59L58 44L51 39Q54 34 62 36Z"></path></g><g fill="url(#mbl-seal-judges-6-f2-relief)" stroke="#FFF2CF" stroke-width=".85"><path d="M27 60L26 76H32L36 60M49 61L52 76H58L58 60"></path><path d="M23 57C14 56 13 45 20 41C17 32 27 28 33 31C36 23 47 24 51 30C61 24 69 32 66 39C75 43 73 54 66 57C62 65 52 65 47 62C38 69 29 65 27 60Z"></path><path d="M62 36L69 29L71 38C78 38 82 43 80 48L75 59C72 65 65 64 62 59L58 44L51 39Q54 34 62 36Z"></path></g><g fill="none" stroke="#733824" stroke-width="1.8"><path d="M28 37q-7 2-5 8M38 32q8-3 10 4M35 48q-5 5 1 10M50 44q8-2 9 6M69 45h1M73 55l4-1"></path></g></g></g></g><path d="M50 84l2 4l-2 4l-2-4Z" fill="#FFF0C6"></path></g></svg>